# xmcd
#
# Track frame offsets:
#	150
#	13955
#	32877
#	43610
#	56645
#	72545
#	90152
#	104608
#	119529
#	135167
#	147265
#	163384
#
# Disc length: 2369 seconds
#
# Revision: 0
# Processed by: cddbd v1.4PL0 Copyright (c) Steve Scherf et al.
# Submitted via: audiograbber 1.80.04
#
DISCID=ad093f0c
DTITLE=Denis Champoux - Ma Collection De Chansons Vol 3
DYEAR=1900
DGENRE=Pop
TTITLE0=La Musique Du Tennessee
TTITLE1=J'écoutais Willie
TTITLE2=La Ballade Du Dimanche Après-Midi
TTITLE3=Le Cowboy En Shoe Clack
TTITLE4=Le Veau D'or Américain
TTITLE5=Mes Vieux Amis
TTITLE6=Si  J'avais Un Grand Cheval
TTITLE7=As-Tu Déjà Pleuré
TTITLE8=125, Nourris Logés
TTITLE9=Conte Moé Pas Ta Vie
TTITLE10=Vivre
TTITLE11=De La Boucane Dans Cabane
EXTD=
EXTT0=
EXTT1=
EXTT2=
EXTT3=
EXTT4=
EXTT5=
EXTT6=
EXTT7=
EXTT8=
EXTT9=
EXTT10=
EXTT11=
PLAYORDER=
